<svg id="Layer_1" data-name="Layer 1" xmlns="http://www.w3.org/2000/svg" xmlns:xlink="http://www.w3.org/1999/xlink" viewBox="0 0 200.79 200.79"><defs><style>.cls-1{fill:#1a8dff;}.cls-2{fill:url(#未命名的渐变_18);}.cls-3{fill:url(#未命名的渐变_9);}.cls-4{fill:url(#linear-gradient);}</style><linearGradient id="未命名的渐变_18" x1="39.46" y1="121.86" x2="85.88" y2="75.44" gradientTransform="matrix(0.5, 0.87, -0.87, 0.5, 116.77, -4.95)" gradientUnits="userSpaceOnUse"><stop offset="0" stop-color="#1a8dff"/><stop offset="1" stop-color="#4bd9ff"/></linearGradient><linearGradient id="未命名的渐变_9" x1="119.69" y1="150.08" x2="83.35" y2="87.13" gradientUnits="userSpaceOnUse"><stop offset="0" stop-color="#1a8dff"/><stop offset="1" stop-color="#4dddff"/></linearGradient><linearGradient id="linear-gradient" x1="111.73" y1="139.78" x2="172.28" y2="34.91" gradientUnits="userSpaceOnUse"><stop offset="0" stop-color="#1a8dff"/><stop offset="0.2" stop-color="#1b9bff"/><stop offset="0.58" stop-color="#1dc1ff"/><stop offset="0.98" stop-color="#20eeff"/></linearGradient></defs><circle class="cls-1" cx="36.67" cy="145.49" r="12.83"/><rect class="cls-2" x="29.15" y="85.82" width="67.04" height="25.67" rx="12.83" transform="translate(-54.1 103.6) rotate(-60)"/><path class="cls-3" d="M128,134.26a8,8,0,0,1-11-2.92l-.39-.65-4.28-7.42-3.17-5.49L89.48,83.59,74.67,109.25,95.91,146h0a15.39,15.39,0,0,0,26.66,0l8-14.21A8.06,8.06,0,0,1,128,134.26Z"/><path class="cls-4" d="M173.15,37a2.77,2.77,0,0,0-4.2-2.33L131.62,57a2.76,2.76,0,0,0,.08,4.79L139.2,66c-.07.11-.14.21-.21.33l-29.75,51.52,3.15,5.46,4.28,7.42.39.65a8,8,0,0,0,13.55.49l-8,14.21h0l38.64-66.92c.14-.24.25-.48.37-.71l8.14,4.53a2.77,2.77,0,0,0,4.12-2.46Z"/></svg>
